# xmcd
#
# Track frame offsets: 
#        150
#        14261
#        33805
#        50335
#        68794
#        88247
#        103102
#        126046
#        142292
#        159532
#
# Disc length: 2370 seconds
#
# Revision: 1
# Processed by: cddbd v1.5.2PL0 Copyright (c) Steve Scherf et al.
# Submitted via: ExactAudioCopy v0.99pb4
#
DISCID=8609400a
DTITLE=Heartplay - Where The Deadends
DYEAR=1900
DGENRE=Rock
TTITLE0=Don't You Ever Fall
TTITLE1=That Kind Of Girl
TTITLE2=Never Again
TTITLE3=Grateful
TTITLE4=Tempted
TTITLE5=This Time
TTITLE6=Silhouttes
TTITLE7=If There's A Way
TTITLE8=Running Man
TTITLE9=Bridges Burning
EXTD=
EXTT0=
EXTT1=
EXTT2=
EXTT3=
EXTT4=
EXTT5=
EXTT6=
EXTT7=
EXTT8=
EXTT9=
PLAYORDER=
